<svg width="200" height="200" viewBox="0 0 200 200" xmlns="http://www.w3.org/2000/svg">
  <!-- Tech Logo Concept 1: Modern Circuit/Network Pattern -->
  <defs>
    <linearGradient id="techGrad1" x1="0%" y1="0%" x2="100%" y2="100%">
      <stop offset="0%" style="stop-color:#FF6B35;stop-opacity:1" />
      <stop offset="100%" style="stop-color:#F7931E;stop-opacity:1" />
    </linearGradient>
    <linearGradient id="techGrad2" x1="0%" y1="0%" x2="100%" y2="100%">
      <stop offset="0%" style="stop-color:#F7931E;stop-opacity:1" />
      <stop offset="100%" style="stop-color:#FFB347;stop-opacity:1" />
    </linearGradient>
  </defs>
  
  <!-- Modern tech pattern - network nodes and connections -->
  <g id="tech-network">
    <!-- Central hub -->
    <circle cx="100" cy="100" r="25" fill="url(#techGrad1)" />
    <circle cx="100" cy="100" r="18" fill="none" stroke="url(#techGrad2)" stroke-width="2" opacity="0.6"/>
    
    <!-- Network nodes -->
    <circle cx="100" cy="40" r="12" fill="url(#techGrad2)" />
    <circle cx="160" cy="100" r="12" fill="url(#techGrad2)" />
    <circle cx="100" cy="160" r="12" fill="url(#techGrad2)" />
    <circle cx="40" cy="100" r="12" fill="url(#techGrad2)" />
    
    <!-- Secondary nodes -->
    <circle cx="140" cy="60" r="8" fill="url(#techGrad2)" opacity="0.8"/>
    <circle cx="140" cy="140" r="8" fill="url(#techGrad2)" opacity="0.8"/>
    <circle cx="60" cy="140" r="8" fill="url(#techGrad2)" opacity="0.8"/>
    <circle cx="60" cy="60" r="8" fill="url(#techGrad2)" opacity="0.8"/>
    
    <!-- Connection lines with tech feel -->
    <line x1="100" y1="100" x2="100" y2="40" stroke="url(#techGrad1)" stroke-width="2.5" opacity="0.7"/>
    <line x1="100" y1="100" x2="160" y2="100" stroke="url(#techGrad1)" stroke-width="2.5" opacity="0.7"/>
    <line x1="100" y1="100" x2="100" y2="160" stroke="url(#techGrad1)" stroke-width="2.5" opacity="0.7"/>
    <line x1="100" y1="100" x2="40" y2="100" stroke="url(#techGrad1)" stroke-width="2.5" opacity="0.7"/>
    
    <line x1="100" y1="100" x2="140" y2="60" stroke="url(#techGrad1)" stroke-width="1.5" opacity="0.5"/>
    <line x1="100" y1="100" x2="140" y2="140" stroke="url(#techGrad1)" stroke-width="1.5" opacity="0.5"/>
    <line x1="100" y1="100" x2="60" y2="140" stroke="url(#techGrad1)" stroke-width="1.5" opacity="0.5"/>
    <line x1="100" y1="100" x2="60" y2="60" stroke="url(#techGrad1)" stroke-width="1.5" opacity="0.5"/>
    
    <!-- Tech accent - small data points -->
    <circle cx="100" cy="40" r="3" fill="#FFB347" />
    <circle cx="160" cy="100" r="3" fill="#FFB347" />
    <circle cx="100" cy="160" r="3" fill="#FFB347" />
    <circle cx="40" cy="100" r="3" fill="#FFB347" />
  </g>
</svg>

